<?xml version="1.0" encoding="utf-8" ?>
<svg baseProfile="full" font-family="system-ui, -apple-system, sans-serif" height="3440" version="1.1" width="3440" xmlns="http://www.w3.org/2000/svg" xmlns:ev="http://www.w3.org/2001/xml-events" xmlns:xlink="http://www.w3.org/1999/xlink"><defs><filter height="220%" id="glow-warn" width="220%" x="-60%" y="-60%"><feGaussianBlur in="SourceAlpha" result="blur" stdDeviation="6" /><feFlood flood-color="#f59e0b" flood-opacity="0.85" result="flood" /><feComposite in="flood" in2="blur" operator="in" result="glow" /><feMerge><feMergeNode in="glow" /><feMergeNode in="SourceGraphic" /></feMerge></filter><filter height="220%" id="glow-crit" width="220%" x="-60%" y="-60%"><feGaussianBlur in="SourceAlpha" result="blur" stdDeviation="8" /><feFlood flood-color="#ef4444" flood-opacity="0.85" result="flood" /><feComposite in="flood" in2="blur" operator="in" result="glow" /><feMerge><feMergeNode in="glow" /><feMergeNode in="SourceGraphic" /></feMerge></filter></defs><rect fill="#0f172a" height="3440" width="3440" x="0" y="0" /><g id="ring-fills"><circle cx="1720.0394833255903" cy="1720.0394833255903" fill="#201018" r="1380.0394833255903" stroke="none" /><circle cx="1720.0394833255903" cy="1720.0394833255903" fill="#1b151a" r="1180.0394833255903" stroke="none" /><circle cx="1720.0394833255903" cy="1720.0394833255903" fill="#161a1c" r="980.0394833255903" stroke="none" /><circle cx="1720.0394833255903" cy="1720.0394833255903" fill="#121f1e" r="780.0394833255903" stroke="none" /><circle cx="1720.0394833255903" cy="1720.0394833255903" fill="#0d2420" r="580.0394833255903" stroke="none" /><circle cx="1720.0394833255903" cy="1720.0394833255903" fill="#0f172a" r="38" stroke="none" /></g><g id="rings"><circle cx="1720.0394833255903" cy="1720.0394833255903" fill="none" r="580.0394833255903" stroke="#1e4035" stroke-dasharray="5,4" stroke-width="1" /><text fill="#facc15" font-size="12px" font-weight="bold" letter-spacing="0.5" text-anchor="middle" x="1720.0394833255903" y="1154.0">Hop 1</text><circle cx="1720.0394833255903" cy="1720.0394833255903" fill="none" r="780.0394833255903" stroke="#263833" stroke-dasharray="5,4" stroke-width="1" /><text fill="#4ade80" font-size="12px" font-weight="bold" letter-spacing="0.5" text-anchor="middle" x="1720.0394833255903" y="954.0">Hop 2</text><circle cx="1720.0394833255903" cy="1720.0394833255903" fill="none" r="980.0394833255903" stroke="#2e2f32" stroke-dasharray="5,4" stroke-width="1" /><text fill="#60a5fa" font-size="12px" font-weight="bold" letter-spacing="0.5" text-anchor="middle" x="1720.0394833255903" y="754.0">Hop 3</text><circle cx="1720.0394833255903" cy="1720.0394833255903" fill="none" r="1180.0394833255903" stroke="#352630" stroke-dasharray="5,4" stroke-width="1" /><text fill="#f472b6" font-size="12px" font-weight="bold" letter-spacing="0.5" text-anchor="middle" x="1720.0394833255903" y="554.0">Hop 4</text><circle cx="1720.0394833255903" cy="1720.0394833255903" fill="none" r="1380.0394833255903" stroke="#3d1e2e" stroke-dasharray="5,4" stroke-width="1" /><text fill="#fb923c" font-size="12px" font-weight="bold" letter-spacing="0.5" text-anchor="middle" x="1720.0394833255903" y="354.0">Hop 5</text></g><g id="edges" opacity="0.55"><line stroke="#22c55e" stroke-width="2.97" x1="1734.0" x2="1720.0" y1="2009.7" y2="1720.0" /><line stroke="#22c55e" stroke-width="2.43" x1="1906.5" x2="1720.0" y1="1497.9" y2="1720.0" /><line stroke="#22c55e" stroke-width="2.26" x1="1984.3" x2="1720.0" y1="1839.6" y2="1720.0" /><line stroke="#22c55e" stroke-width="2.06" x1="1503.9" x2="1720.0" y1="1913.4" y2="1720.0" /><line stroke="#22c55e" stroke-width="1.91" x1="1440.0" x2="1720.0" y1="1795.6" y2="1720.0" /><line stroke="#22c55e" stroke-width="1.9" x1="1434.8" x2="1720.0" y1="1667.7" y2="1720.0" /><line stroke="#22c55e" stroke-width="2.14" x1="1485.1" x2="1720.0" y1="1550.0" y2="1720.0" /><line stroke="#ef4444" stroke-width="0.8" x1="1581.1" x2="1720.0" y1="1465.4" y2="1720.0" /><line stroke="#ef4444" stroke-width="0.8" x1="1704.3" x2="1720.0" y1="1430.4" y2="1720.0" /><line stroke="#22c55e" stroke-width="2.97" x1="1827.4" x2="1734.0" y1="2391.5" y2="2009.7" /><line stroke="#22c55e" stroke-width="2.69" x1="1965.8" x2="1734.0" y1="2354.1" y2="2009.7" /><line stroke="#22c55e" stroke-width="2.97" x1="1693.7" x2="1734.0" y1="2399.6" y2="2009.7" /><line stroke="#22c55e" stroke-width="2.7" x1="1560.9" x2="1734.0" y1="2381.2" y2="2009.7" /><line stroke="#22c55e" stroke-width="2.22" x1="1434.4" x2="1734.0" y1="2337.2" y2="2009.7" /><line stroke="#f59e0b" stroke-width="1.62" x1="1787.8" x2="1906.5" y1="1043.4" y2="1497.9" /><line stroke="#f59e0b" stroke-width="1.62" x1="1920.6" x2="1906.5" y1="1070.2" y2="1497.9" /><line stroke="#f59e0b" stroke-width="1.62" x1="2045.4" x2="1906.5" y1="1122.9" y2="1497.9" /><line stroke="#f59e0b" stroke-width="1.62" x1="2157.4" x2="1906.5" y1="1199.3" y2="1497.9" /><line stroke="#f59e0b" stroke-width="1.62" x1="2251.9" x2="1906.5" y1="1296.3" y2="1497.9" /><line stroke="#f59e0b" stroke-width="1.62" x1="2325.4" x2="1906.5" y1="1410.2" y2="1497.9" /><line stroke="#f59e0b" stroke-width="1.62" x1="2374.8" x2="1906.5" y1="1536.3" y2="1497.9" /><line stroke="#22c55e" stroke-width="1.89" x1="2382.9" x2="1984.3" y1="1872.0" y2="1839.6" /><line stroke="#22c55e" stroke-width="2.06" x1="2229.4" x2="1984.3" y1="2170.7" y2="1839.6" /><line stroke="#f59e0b" stroke-width="1.57" x1="2129.9" x2="1984.3" y1="2262.7" y2="1839.6" /><line stroke="#22c55e" stroke-width="2.06" x1="1256.4" x2="1503.9" y1="2217.6" y2="1913.4" /><line stroke="#22c55e" stroke-width="2.06" x1="1099.5" x2="1503.9" y1="1998.3" y2="1913.4" /><line stroke="#22c55e" stroke-width="2.13" x1="1811.1" x2="1827.4" y1="2595.4" y2="2391.5" /><line stroke="#22c55e" stroke-width="2.69" x1="2038.1" x2="1965.8" y1="2540.6" y2="2354.1" /><line stroke="#22c55e" stroke-width="2.03" x1="2546.6" x2="2382.9" y1="2022.0" y2="1872.0" /><line stroke="#22c55e" stroke-width="2.29" x1="2599.9" x2="2382.9" y1="1740.1" y2="1872.0" /><line stroke="#f59e0b" stroke-width="1.56" x1="2468.9" x2="2382.9" y1="2182.2" y2="1872.0" /><line stroke="#22c55e" stroke-width="2.06" x1="1120.1" x2="1256.4" y1="2363.9" y2="2217.6" /><line stroke="#f59e0b" stroke-width="1.31" x1="2110.3" x2="2038.1" y1="2727.1" y2="2540.6" /><line stroke="#22c55e" stroke-width="2.82" x1="2756.6" x2="2546.6" y1="2023.5" y2="2022.0" /><line stroke="#f59e0b" stroke-width="1.57" x1="2708.1" x2="2546.6" y1="2156.3" y2="2022.0" /><line stroke="#f59e0b" stroke-width="1.52" x1="2799.8" x2="2599.9" y1="1744.6" y2="1740.1" /><line stroke="#22c55e" stroke-width="2.06" x1="1109.8" x2="1120.1" y1="2611.2" y2="2363.9" /><line stroke="#22c55e" stroke-width="2.06" x1="874.1" x2="1120.1" y1="2391.6" y2="2363.9" /><line stroke="#f59e0b" stroke-width="1.31" x1="2182.6" x2="2110.3" y1="2913.6" y2="2727.1" /><line stroke="#f59e0b" stroke-width="1.52" x1="2999.7" x2="2799.8" y1="1749.2" y2="1744.6" /></g><g id="nodes"><circle cx="1720.0" cy="1720.0" fill="#f59e0b" r="28" stroke="#f59e0b" stroke-width="0" /><circle cx="1906.5" cy="1497.9" fill="#0ea5e9" r="20" stroke="#0ea5e9" stroke-width="0" /><rect fill="#0f172a" height="11" opacity="0.82" rx="3" width="26" x="1893.5" y="1492.4" /><text fill="#22c55e" font-size="9px" font-weight="bold" text-anchor="middle" x="1906.5" y="1501.2">148</text><circle cx="1787.8" cy="1043.4" fill="#475569" filter="url(#glow-warn)" r="14" stroke="#f59e0b" stroke-width="2" /><rect fill="#0f172a" height="10" opacity="0.82" rx="3" width="18" x="1778.8" y="1038.4" /><text fill="#f59e0b" font-size="8px" font-weight="bold" text-anchor="middle" x="1787.8" y="1046.4">75</text><circle cx="1920.6" cy="1070.2" fill="#475569" filter="url(#glow-warn)" r="14" stroke="#f59e0b" stroke-width="2" /><rect fill="#0f172a" height="10" opacity="0.82" rx="3" width="18" x="1911.6" y="1065.2" /><text fill="#f59e0b" font-size="8px" font-weight="bold" text-anchor="middle" x="1920.6" y="1073.2">75</text><circle cx="2045.4" cy="1122.9" fill="#475569" filter="url(#glow-warn)" r="14" stroke="#f59e0b" stroke-width="2" /><rect fill="#0f172a" height="10" opacity="0.82" rx="3" width="18" x="2036.4" y="1117.9" /><text fill="#f59e0b" font-size="8px" font-weight="bold" text-anchor="middle" x="2045.4" y="1125.9">75</text><circle cx="2157.4" cy="1199.3" fill="#475569" filter="url(#glow-warn)" r="14" stroke="#f59e0b" stroke-width="2" /><rect fill="#0f172a" height="10" opacity="0.82" rx="3" width="18" x="2148.4" y="1194.3" /><text fill="#f59e0b" font-size="8px" font-weight="bold" text-anchor="middle" x="2157.4" y="1202.3">75</text><circle cx="2251.9" cy="1296.3" fill="#475569" filter="url(#glow-warn)" r="14" stroke="#f59e0b" stroke-width="2" /><rect fill="#0f172a" height="10" opacity="0.82" rx="3" width="18" x="2242.9" y="1291.3" /><text fill="#f59e0b" font-size="8px" font-weight="bold" text-anchor="middle" x="2251.9" y="1299.3">75</text><circle cx="2325.4" cy="1410.2" fill="#475569" filter="url(#glow-warn)" r="14" stroke="#f59e0b" stroke-width="2" /><rect fill="#0f172a" height="10" opacity="0.82" rx="3" width="18" x="2316.4" y="1405.2" /><text fill="#f59e0b" font-size="8px" font-weight="bold" text-anchor="middle" x="2325.4" y="1413.2">75</text><circle cx="2374.8" cy="1536.3" fill="#475569" filter="url(#glow-warn)" r="14" stroke="#f59e0b" stroke-width="2" /><rect fill="#0f172a" height="10" opacity="0.82" rx="3" width="18" x="2365.8" y="1531.3" /><text fill="#f59e0b" font-size="8px" font-weight="bold" text-anchor="middle" x="2374.8" y="1539.3">75</text><circle cx="1984.3" cy="1839.6" fill="#0ea5e9" r="20" stroke="#0ea5e9" stroke-width="0" /><rect fill="#0f172a" height="11" opacity="0.82" rx="3" width="26" x="1971.3" y="1834.1" /><text fill="#22c55e" font-size="9px" font-weight="bold" text-anchor="middle" x="1984.3" y="1842.9">133</text><circle cx="2382.9" cy="1872.0" fill="#0ea5e9" r="20" stroke="#0ea5e9" stroke-width="0" /><rect fill="#0f172a" height="11" opacity="0.82" rx="3" width="20" x="2372.9" y="1866.5" /><text fill="#22c55e" font-size="9px" font-weight="bold" text-anchor="middle" x="2382.9" y="1875.3">99</text><circle cx="2599.9" cy="1740.1" fill="#0ea5e9" r="20" stroke="#0ea5e9" stroke-width="0" /><rect fill="#0f172a" height="11" opacity="0.82" rx="3" width="20" x="2589.9" y="1734.6" /><text fill="#22c55e" font-size="9px" font-weight="bold" text-anchor="middle" x="2599.9" y="1743.4">99</text><circle cx="2799.8" cy="1744.6" fill="#0ea5e9" filter="url(#glow-warn)" r="20" stroke="#f59e0b" stroke-width="2" /><rect fill="#0f172a" height="11" opacity="0.82" rx="3" width="20" x="2789.8" y="1739.1" /><text fill="#f59e0b" font-size="9px" font-weight="bold" text-anchor="middle" x="2799.8" y="1747.9">66</text><circle cx="2999.7" cy="1749.2" fill="#475569" filter="url(#glow-warn)" r="14" stroke="#f59e0b" stroke-width="2" /><rect fill="#0f172a" height="10" opacity="0.82" rx="3" width="18" x="2990.7" y="1744.2" /><text fill="#f59e0b" font-size="8px" font-weight="bold" text-anchor="middle" x="2999.7" y="1752.2">66</text><circle cx="2546.6" cy="2022.0" fill="#0ea5e9" r="20" stroke="#0ea5e9" stroke-width="0" /><rect fill="#0f172a" height="11" opacity="0.82" rx="3" width="20" x="2536.6" y="2016.5" /><text fill="#22c55e" font-size="9px" font-weight="bold" text-anchor="middle" x="2546.6" y="2025.3">99</text><circle cx="2756.6" cy="2023.5" fill="#475569" r="14" stroke="#475569" stroke-width="0" /><rect fill="#0f172a" height="10" opacity="0.82" rx="3" width="18" x="2747.6" y="2018.5" /><text fill="#22c55e" font-size="8px" font-weight="bold" text-anchor="middle" x="2756.6" y="2026.5">99</text><circle cx="2708.1" cy="2156.3" fill="#475569" filter="url(#glow-warn)" r="14" stroke="#f59e0b" stroke-width="2" /><rect fill="#0f172a" height="10" opacity="0.82" rx="3" width="18" x="2699.1" y="2151.3" /><text fill="#f59e0b" font-size="8px" font-weight="bold" text-anchor="middle" x="2708.1" y="2159.3">70</text><circle cx="2468.9" cy="2182.2" fill="#475569" filter="url(#glow-warn)" r="14" stroke="#f59e0b" stroke-width="2" /><rect fill="#0f172a" height="10" opacity="0.82" rx="3" width="18" x="2459.9" y="2177.2" /><text fill="#f59e0b" font-size="8px" font-weight="bold" text-anchor="middle" x="2468.9" y="2185.2">69</text><circle cx="2229.4" cy="2170.7" fill="#475569" r="14" stroke="#475569" stroke-width="0" /><rect fill="#0f172a" height="10" opacity="0.82" rx="3" width="23" x="2217.9" y="2165.7" /><text fill="#22c55e" font-size="8px" font-weight="bold" text-anchor="middle" x="2229.4" y="2173.7">115</text><circle cx="2129.9" cy="2262.7" fill="#475569" filter="url(#glow-warn)" r="14" stroke="#f59e0b" stroke-width="2" /><rect fill="#0f172a" height="10" opacity="0.82" rx="3" width="18" x="2120.9" y="2257.7" /><text fill="#f59e0b" font-size="8px" font-weight="bold" text-anchor="middle" x="2129.9" y="2265.7">70</text><circle cx="1734.0" cy="2009.7" fill="#0ea5e9" r="20" stroke="#0ea5e9" stroke-width="0" /><rect fill="#0f172a" height="11" opacity="0.82" rx="3" width="26" x="1721.0" y="2004.2" /><text fill="#22c55e" font-size="9px" font-weight="bold" text-anchor="middle" x="1734.0" y="2013.0">198</text><circle cx="1965.8" cy="2354.1" fill="#0ea5e9" r="20" stroke="#0ea5e9" stroke-width="0" /><rect fill="#0f172a" height="11" opacity="0.82" rx="3" width="26" x="1952.8" y="2348.6" /><text fill="#22c55e" font-size="9px" font-weight="bold" text-anchor="middle" x="1965.8" y="2357.4">172</text><circle cx="2038.1" cy="2540.6" fill="#0ea5e9" r="20" stroke="#0ea5e9" stroke-width="0" /><rect fill="#0f172a" height="11" opacity="0.82" rx="3" width="26" x="2025.1" y="2535.1" /><text fill="#22c55e" font-size="9px" font-weight="bold" text-anchor="middle" x="2038.1" y="2543.9">172</text><circle cx="2110.3" cy="2727.1" fill="#0ea5e9" filter="url(#glow-warn)" r="20" stroke="#f59e0b" stroke-width="2" /><rect fill="#0f172a" height="11" opacity="0.82" rx="3" width="20" x="2100.3" y="2721.6" /><text fill="#f59e0b" font-size="9px" font-weight="bold" text-anchor="middle" x="2110.3" y="2730.4">46</text><circle cx="2182.6" cy="2913.6" fill="#475569" filter="url(#glow-warn)" r="14" stroke="#f59e0b" stroke-width="2" /><rect fill="#0f172a" height="10" opacity="0.82" rx="3" width="18" x="2173.6" y="2908.6" /><text fill="#f59e0b" font-size="8px" font-weight="bold" text-anchor="middle" x="2182.6" y="2916.6">46</text><circle cx="1827.4" cy="2391.5" fill="#0ea5e9" r="20" stroke="#0ea5e9" stroke-width="0" /><rect fill="#0f172a" height="11" opacity="0.82" rx="3" width="26" x="1814.4" y="2386.0" /><text fill="#22c55e" font-size="9px" font-weight="bold" text-anchor="middle" x="1827.4" y="2394.8">198</text><circle cx="1811.1" cy="2595.4" fill="#0ea5e9" r="20" stroke="#0ea5e9" stroke-width="0" /><rect fill="#0f172a" height="11" opacity="0.82" rx="3" width="26" x="1798.1" y="2589.9" /><text fill="#22c55e" font-size="9px" font-weight="bold" text-anchor="middle" x="1811.1" y="2598.7">121</text><circle cx="1693.7" cy="2399.6" fill="#475569" r="14" stroke="#475569" stroke-width="0" /><rect fill="#0f172a" height="10" opacity="0.82" rx="3" width="23" x="1682.2" y="2394.6" /><text fill="#22c55e" font-size="8px" font-weight="bold" text-anchor="middle" x="1693.7" y="2402.6">198</text><circle cx="1560.9" cy="2381.2" fill="#0ea5e9" r="20" stroke="#0ea5e9" stroke-width="0" /><rect fill="#0f172a" height="11" opacity="0.82" rx="3" width="26" x="1547.9" y="2375.7" /><text fill="#22c55e" font-size="9px" font-weight="bold" text-anchor="middle" x="1560.9" y="2384.5">173</text><circle cx="1434.4" cy="2337.2" fill="#475569" r="14" stroke="#475569" stroke-width="0" /><rect fill="#0f172a" height="10" opacity="0.82" rx="3" width="23" x="1422.9" y="2332.2" /><text fill="#22c55e" font-size="8px" font-weight="bold" text-anchor="middle" x="1434.4" y="2340.2">129</text><circle cx="1503.9" cy="1913.4" fill="#0ea5e9" r="20" stroke="#0ea5e9" stroke-width="0" /><rect fill="#0f172a" height="11" opacity="0.82" rx="3" width="26" x="1490.9" y="1907.9" /><text fill="#22c55e" font-size="9px" font-weight="bold" text-anchor="middle" x="1503.9" y="1916.7">115</text><circle cx="1256.4" cy="2217.6" fill="#0ea5e9" r="20" stroke="#0ea5e9" stroke-width="0" /><rect fill="#0f172a" height="11" opacity="0.82" rx="3" width="26" x="1243.4" y="2212.1" /><text fill="#22c55e" font-size="9px" font-weight="bold" text-anchor="middle" x="1256.4" y="2220.9">115</text><circle cx="1120.1" cy="2363.9" fill="#0ea5e9" r="20" stroke="#0ea5e9" stroke-width="0" /><rect fill="#0f172a" height="11" opacity="0.82" rx="3" width="26" x="1107.1" y="2358.4" /><text fill="#22c55e" font-size="9px" font-weight="bold" text-anchor="middle" x="1120.1" y="2367.2">115</text><circle cx="1109.8" cy="2611.2" fill="#475569" r="14" stroke="#475569" stroke-width="0" /><rect fill="#0f172a" height="10" opacity="0.82" rx="3" width="23" x="1098.3" y="2606.2" /><text fill="#22c55e" font-size="8px" font-weight="bold" text-anchor="middle" x="1109.8" y="2614.2">115</text><circle cx="874.1" cy="2391.6" fill="#475569" r="14" stroke="#475569" stroke-width="0" /><rect fill="#0f172a" height="10" opacity="0.82" rx="3" width="23" x="862.6" y="2386.6" /><text fill="#22c55e" font-size="8px" font-weight="bold" text-anchor="middle" x="874.1" y="2394.6">115</text><circle cx="1099.5" cy="1998.3" fill="#475569" r="14" stroke="#475569" stroke-width="0" /><rect fill="#0f172a" height="10" opacity="0.82" rx="3" width="23" x="1088.0" y="1993.3" /><text fill="#22c55e" font-size="8px" font-weight="bold" text-anchor="middle" x="1099.5" y="2001.3">115</text><circle cx="1440.0" cy="1795.6" fill="#475569" r="14" stroke="#475569" stroke-width="0" /><rect fill="#0f172a" height="10" opacity="0.82" rx="3" width="23" x="1428.5" y="1790.6" /><text fill="#22c55e" font-size="8px" font-weight="bold" text-anchor="middle" x="1440.0" y="1798.6">101</text><circle cx="1434.8" cy="1667.7" fill="#475569" r="14" stroke="#475569" stroke-width="0" /><rect fill="#0f172a" height="10" opacity="0.82" rx="3" width="23" x="1423.3" y="1662.7" /><text fill="#22c55e" font-size="8px" font-weight="bold" text-anchor="middle" x="1434.8" y="1670.7">100</text><circle cx="1485.1" cy="1550.0" fill="#475569" r="14" stroke="#475569" stroke-width="0" /><rect fill="#0f172a" height="10" opacity="0.82" rx="3" width="23" x="1473.6" y="1545.0" /><text fill="#22c55e" font-size="8px" font-weight="bold" text-anchor="middle" x="1485.1" y="1553.0">122</text><circle cx="1581.1" cy="1465.4" fill="#475569" filter="url(#glow-crit)" r="14" stroke="#ef4444" stroke-width="3" /><rect fill="#0f172a" height="10" opacity="0.82" rx="3" width="13" x="1574.6" y="1460.4" /><text fill="#ef4444" font-size="8px" font-weight="bold" text-anchor="middle" x="1581.1" y="1468.4">0</text><circle cx="1704.3" cy="1430.4" fill="#475569" filter="url(#glow-crit)" r="14" stroke="#ef4444" stroke-width="3" /><rect fill="#0f172a" height="10" opacity="0.82" rx="3" width="13" x="1697.8" y="1425.4" /><text fill="#ef4444" font-size="8px" font-weight="bold" text-anchor="middle" x="1704.3" y="1433.4">0</text></g><g id="labels"><rect fill="#0f172a" height="16" opacity="0.7" rx="5" width="76" x="1682.0" y="1751.0" /><text fill="#e2e8f0" font-size="11px" text-anchor="middle" x="1720.0" y="1764.0">Coordinator</text><rect fill="#0f172a" height="16" opacity="0.7" rx="5" width="82" x="1924.4" y="1458.9" /><text fill="#e2e8f0" font-size="11px" text-anchor="start" x="1928.4" y="1471.9">Kitchen Plug</text><rect fill="#0f172a" height="16" opacity="0.7" rx="5" width="64" x="1758.6" y="1002.5" /><text fill="#e2e8f0" font-size="11px" text-anchor="middle" x="1790.6" y="1015.5">Emil Plug</text><rect fill="#0f172a" height="16" opacity="0.7" rx="5" width="88" x="1924.8" y="1030.5" /><text fill="#e2e8f0" font-size="11px" text-anchor="start" x="1928.8" y="1043.5">Linus Climate</text><rect fill="#0f172a" height="16" opacity="0.7" rx="5" width="76" x="2054.8" y="1085.3" /><text fill="#e2e8f0" font-size="11px" text-anchor="start" x="2058.8" y="1098.3">Hall Motion</text><rect fill="#0f172a" height="16" opacity="0.7" rx="5" width="88" x="2171.4" y="1164.8" /><text fill="#e2e8f0" font-size="11px" text-anchor="start" x="2175.4" y="1177.8">Attic Climate</text><rect fill="#0f172a" height="16" opacity="0.7" rx="5" width="136" x="2269.8" y="1265.9" /><text fill="#e2e8f0" font-size="11px" text-anchor="start" x="2273.8" y="1278.9">Outside Woodshed Plug</text><rect fill="#0f172a" height="16" opacity="0.7" rx="5" width="94" x="2346.3" y="1384.4" /><text fill="#e2e8f0" font-size="11px" text-anchor="start" x="2350.3" y="1397.4">Emil Door Plug</text><rect fill="#0f172a" height="16" opacity="0.7" rx="5" width="76" x="2397.8" y="1515.8" /><text fill="#e2e8f0" font-size="11px" text-anchor="start" x="2401.8" y="1528.8">Coffee Plug</text><rect fill="#0f172a" height="16" opacity="0.7" rx="5" width="94" x="2011.2" y="1840.6" /><text fill="#e2e8f0" font-size="11px" text-anchor="start" x="2015.2" y="1853.6">Hall Door Plug</text><rect fill="#0f172a" height="16" opacity="0.7" rx="5" width="106" x="2412.0" y="1866.6" /><text fill="#e2e8f0" font-size="11px" text-anchor="start" x="2416.0" y="1879.6">SMLIGHT Repeater</text><rect fill="#0f172a" height="16" opacity="0.7" rx="5" width="88" x="2629.8" y="1727.8" /><text fill="#e2e8f0" font-size="11px" text-anchor="start" x="2633.8" y="1740.8">Ferroamp Plug</text><rect fill="#0f172a" height="16" opacity="0.7" rx="5" width="94" x="2829.8" y="1732.4" /><text fill="#e2e8f0" font-size="11px" text-anchor="start" x="2833.8" y="1745.4">Billadder Plug</text><rect fill="#0f172a" height="16" opacity="0.7" rx="5" width="82" x="3023.7" y="1736.8" /><text fill="#e2e8f0" font-size="11px" text-anchor="start" x="3027.7" y="1749.8">Room Climate</text><rect fill="#0f172a" height="16" opacity="0.7" rx="5" width="112" x="2574.6" y="2020.7" /><text fill="#e2e8f0" font-size="11px" text-anchor="start" x="2578.6" y="2033.7">Garage Smart Plug</text><rect fill="#0f172a" height="16" opacity="0.7" rx="5" width="118" x="2779.4" y="2018.3" /><text fill="#e2e8f0" font-size="11px" text-anchor="start" x="2783.4" y="2031.3">Garage Center Plug</text><rect fill="#0f172a" height="16" opacity="0.7" rx="5" width="94" x="2729.7" y="2154.6" /><text fill="#e2e8f0" font-size="11px" text-anchor="start" x="2733.7" y="2167.6">Garage Climate</text><rect fill="#0f172a" height="16" opacity="0.7" rx="5" width="136" x="2488.8" y="2183.9" /><text fill="#e2e8f0" font-size="11px" text-anchor="start" x="2492.8" y="2196.9">Outside Front Climate</text><rect fill="#0f172a" height="16" opacity="0.7" rx="5" width="136" x="2246.3" y="2176.2" /><text fill="#e2e8f0" font-size="11px" text-anchor="start" x="2250.3" y="2189.2">Downstairs Toilet Cli</text><rect fill="#0f172a" height="16" opacity="0.7" rx="5" width="100" x="2142.8" y="2272.0" /><text fill="#e2e8f0" font-size="11px" text-anchor="start" x="2146.8" y="2285.0">Lego Car Lights</text><rect fill="#0f172a" height="16" opacity="0.7" rx="5" width="106" x="1682.6" y="2030.7" /><text fill="#e2e8f0" font-size="11px" text-anchor="middle" x="1735.6" y="2043.7">Living Room Plug</text><rect fill="#0f172a" height="16" opacity="0.7" rx="5" width="94" x="1974.1" y="2372.8" /><text fill="#e2e8f0" font-size="11px" text-anchor="start" x="1978.1" y="2385.8">Hall Yale Plug</text><rect fill="#0f172a" height="16" opacity="0.7" rx="5" width="124" x="2046.4" y="2559.3" /><text fill="#e2e8f0" font-size="11px" text-anchor="start" x="2050.4" y="2572.3">Hall Coatroom Light</text><rect fill="#0f172a" height="16" opacity="0.7" rx="5" width="124" x="2118.6" y="2745.8" /><text fill="#e2e8f0" font-size="11px" text-anchor="start" x="2122.6" y="2758.8">Storage Heater Plug</text><rect fill="#0f172a" height="16" opacity="0.7" rx="5" width="100" x="2188.7" y="2926.7" /><text fill="#e2e8f0" font-size="11px" text-anchor="start" x="2192.7" y="2939.7">Storage Climate</text><rect fill="#0f172a" height="16" opacity="0.7" rx="5" width="130" x="1767.8" y="2412.1" /><text fill="#e2e8f0" font-size="11px" text-anchor="middle" x="1832.8" y="2425.1">Upstairs Stairs Plug</text><rect fill="#0f172a" height="16" opacity="0.7" rx="5" width="112" x="1758.7" y="2616.2" /><text fill="#e2e8f0" font-size="11px" text-anchor="middle" x="1814.7" y="2629.2">Office Soffa Plug</text><rect fill="#0f172a" height="16" opacity="0.7" rx="5" width="94" x="1645.6" y="2414.5" /><text fill="#e2e8f0" font-size="11px" text-anchor="middle" x="1692.6" y="2427.5">Office Climate</text><rect fill="#0f172a" height="16" opacity="0.7" rx="5" width="82" x="1512.0" y="2401.3" /><text fill="#e2e8f0" font-size="11px" text-anchor="middle" x="1553.0" y="2414.3">Bedroom Plug</text><rect fill="#0f172a" height="16" opacity="0.7" rx="5" width="124" x="1302.6" y="2349.6" /><text fill="#e2e8f0" font-size="11px" text-anchor="end" x="1422.6" y="2362.6">Living Room Climate</text><rect fill="#0f172a" height="16" opacity="0.7" rx="5" width="76" x="1406.6" y="1923.1" /><text fill="#e2e8f0" font-size="11px" text-anchor="end" x="1478.6" y="1936.1">IKEA Outlet</text><rect fill="#0f172a" height="16" opacity="0.7" rx="5" width="130" x="1107.3" y="2229.4" /><text fill="#e2e8f0" font-size="11px" text-anchor="end" x="1233.3" y="2242.4">Downstairs Left Plug</text><rect fill="#0f172a" height="16" opacity="0.7" rx="5" width="136" x="964.9" y="2375.8" /><text fill="#e2e8f0" font-size="11px" text-anchor="end" x="1096.9" y="2388.8">Downstairs Right Plug</text><rect fill="#0f172a" height="16" opacity="0.7" rx="5" width="124" x="974.0" y="2621.3" /><text fill="#e2e8f0" font-size="11px" text-anchor="end" x="1094.0" y="2634.3">Outside Robban Plug</text><rect fill="#0f172a" height="16" opacity="0.7" rx="5" width="136" x="720.2" y="2396.0" /><text fill="#e2e8f0" font-size="11px" text-anchor="end" x="852.2" y="2409.0">Living Room Climate 2</text><rect fill="#0f172a" height="16" opacity="0.7" rx="5" width="112" x="966.0" y="1996.7" /><text fill="#e2e8f0" font-size="11px" text-anchor="end" x="1074.0" y="2009.7">Living Room Smoke</text><rect fill="#0f172a" height="16" opacity="0.7" rx="5" width="70" x="1347.0" y="1789.9" /><text fill="#e2e8f0" font-size="11px" text-anchor="end" x="1413.0" y="1802.9">Hall Smoke</text><rect fill="#0f172a" height="16" opacity="0.7" rx="5" width="82" x="1329.2" y="1649.7" /><text fill="#e2e8f0" font-size="11px" text-anchor="end" x="1407.2" y="1662.7">Hall Climate</text><rect fill="#0f172a" height="16" opacity="0.7" rx="5" width="142" x="1324.4" y="1520.6" /><text fill="#e2e8f0" font-size="11px" text-anchor="end" x="1462.4" y="1533.6">Master Bedroom Climate</text><rect fill="#0f172a" height="16" opacity="0.7" rx="5" width="94" x="1477.7" y="1427.9" /><text fill="#e2e8f0" font-size="11px" text-anchor="end" x="1567.7" y="1440.9">TRADFRI Outlet</text><rect fill="#0f172a" height="16" opacity="0.7" rx="5" width="76" x="1664.7" y="1389.5" /><text fill="#e2e8f0" font-size="11px" text-anchor="middle" x="1702.7" y="1402.5">Hall Button</text></g><g id="lqi-labels"><rect fill="#0f172a" height="13" opacity="0.85" rx="4" width="31" x="1708.7" y="1797.9" /><text fill="#22c55e" font-size="11px" opacity="0.95" text-anchor="middle" x="1724.2" y="1807.9">198</text><rect fill="#0f172a" height="13" opacity="0.85" rx="4" width="31" x="1760.5" y="1644.4" /><text fill="#22c55e" font-size="11px" opacity="0.95" text-anchor="middle" x="1776.0" y="1654.4">148</text><rect fill="#0f172a" height="13" opacity="0.85" rx="4" width="31" x="1783.8" y="1746.9" /><text fill="#22c55e" font-size="11px" opacity="0.95" text-anchor="middle" x="1799.3" y="1756.9">133</text><rect fill="#0f172a" height="13" opacity="0.85" rx="4" width="31" x="1639.7" y="1769.1" /><text fill="#22c55e" font-size="11px" opacity="0.95" text-anchor="middle" x="1655.2" y="1779.1">115</text><rect fill="#0f172a" height="13" opacity="0.85" rx="4" width="31" x="1620.5" y="1733.7" /><text fill="#22c55e" font-size="11px" opacity="0.95" text-anchor="middle" x="1636.0" y="1743.7">101</text><rect fill="#0f172a" height="13" opacity="0.85" rx="4" width="31" x="1619.0" y="1695.3" /><text fill="#22c55e" font-size="11px" opacity="0.95" text-anchor="middle" x="1634.5" y="1705.3">100</text><rect fill="#0f172a" height="13" opacity="0.85" rx="4" width="31" x="1634.0" y="1660.0" /><text fill="#22c55e" font-size="11px" opacity="0.95" text-anchor="middle" x="1649.5" y="1670.0">122</text><rect fill="#0f172a" height="13" opacity="0.85" rx="4" width="17" x="1669.9" y="1634.7" /><text fill="#ef4444" font-size="11px" opacity="0.95" text-anchor="middle" x="1678.4" y="1644.7">0</text><rect fill="#0f172a" height="13" opacity="0.85" rx="4" width="17" x="1706.8" y="1624.2" /><text fill="#ef4444" font-size="11px" opacity="0.95" text-anchor="middle" x="1715.3" y="1634.2">0</text><rect fill="#0f172a" height="13" opacity="0.85" rx="4" width="31" x="1746.5" y="2115.3" /><text fill="#22c55e" font-size="11px" opacity="0.95" text-anchor="middle" x="1762.0" y="2125.3">198</text><rect fill="#0f172a" height="13" opacity="0.85" rx="4" width="31" x="1788.0" y="2104.0" /><text fill="#22c55e" font-size="11px" opacity="0.95" text-anchor="middle" x="1803.5" y="2114.0">172</text><rect fill="#0f172a" height="13" opacity="0.85" rx="4" width="31" x="1706.4" y="2117.7" /><text fill="#22c55e" font-size="11px" opacity="0.95" text-anchor="middle" x="1721.9" y="2127.7">198</text><rect fill="#0f172a" height="13" opacity="0.85" rx="4" width="31" x="1666.6" y="2112.2" /><text fill="#22c55e" font-size="11px" opacity="0.95" text-anchor="middle" x="1682.1" y="2122.2">173</text><rect fill="#0f172a" height="13" opacity="0.85" rx="4" width="31" x="1628.6" y="2099.0" /><text fill="#22c55e" font-size="11px" opacity="0.95" text-anchor="middle" x="1644.1" y="2109.0">129</text><rect fill="#0f172a" height="13" opacity="0.85" rx="4" width="24" x="1858.9" y="1352.6" /><text fill="#f59e0b" font-size="11px" opacity="0.95" text-anchor="middle" x="1870.9" y="1362.6">75</text><rect fill="#0f172a" height="13" opacity="0.85" rx="4" width="24" x="1898.8" y="1360.6" /><text fill="#f59e0b" font-size="11px" opacity="0.95" text-anchor="middle" x="1910.8" y="1370.6">75</text><rect fill="#0f172a" height="13" opacity="0.85" rx="4" width="24" x="1936.2" y="1376.4" /><text fill="#f59e0b" font-size="11px" opacity="0.95" text-anchor="middle" x="1948.2" y="1386.4">75</text><rect fill="#0f172a" height="13" opacity="0.85" rx="4" width="24" x="1969.8" y="1399.3" /><text fill="#f59e0b" font-size="11px" opacity="0.95" text-anchor="middle" x="1981.8" y="1409.3">75</text><rect fill="#0f172a" height="13" opacity="0.85" rx="4" width="24" x="1998.2" y="1428.5" /><text fill="#f59e0b" font-size="11px" opacity="0.95" text-anchor="middle" x="2010.2" y="1438.5">75</text><rect fill="#0f172a" height="13" opacity="0.85" rx="4" width="24" x="2020.2" y="1462.6" /><text fill="#f59e0b" font-size="11px" opacity="0.95" text-anchor="middle" x="2032.2" y="1472.6">75</text><rect fill="#0f172a" height="13" opacity="0.85" rx="4" width="24" x="2035.0" y="1500.5" /><text fill="#f59e0b" font-size="11px" opacity="0.95" text-anchor="middle" x="2047.0" y="1510.5">75</text><rect fill="#0f172a" height="13" opacity="0.85" rx="4" width="24" x="2091.8" y="1840.3" /><text fill="#22c55e" font-size="11px" opacity="0.95" text-anchor="middle" x="2103.8" y="1850.3">99</text><rect fill="#0f172a" height="13" opacity="0.85" rx="4" width="31" x="2042.3" y="1929.9" /><text fill="#22c55e" font-size="11px" opacity="0.95" text-anchor="middle" x="2057.8" y="1939.9">115</text><rect fill="#0f172a" height="13" opacity="0.85" rx="4" width="24" x="2016.0" y="1957.5" /><text fill="#f59e0b" font-size="11px" opacity="0.95" text-anchor="middle" x="2028.0" y="1967.5">70</text><rect fill="#0f172a" height="13" opacity="0.85" rx="4" width="31" x="1414.2" y="1995.7" /><text fill="#22c55e" font-size="11px" opacity="0.95" text-anchor="middle" x="1429.7" y="2005.7">115</text><rect fill="#0f172a" height="13" opacity="0.85" rx="4" width="31" x="1367.1" y="1929.9" /><text fill="#22c55e" font-size="11px" opacity="0.95" text-anchor="middle" x="1382.6" y="1939.9">115</text><rect fill="#0f172a" height="13" opacity="0.85" rx="4" width="31" x="1807.0" y="2443.7" /><text fill="#22c55e" font-size="11px" opacity="0.95" text-anchor="middle" x="1822.5" y="2453.7">121</text><rect fill="#0f172a" height="13" opacity="0.85" rx="4" width="31" x="1972.0" y="2401.1" /><text fill="#22c55e" font-size="11px" opacity="0.95" text-anchor="middle" x="1987.5" y="2411.1">172</text><rect fill="#0f172a" height="13" opacity="0.85" rx="4" width="31" x="2416.5" y="1908.0" /><text fill="#22c55e" font-size="11px" opacity="0.95" text-anchor="middle" x="2432.0" y="1918.0">112</text><rect fill="#0f172a" height="13" opacity="0.85" rx="4" width="31" x="2432.5" y="1823.4" /><text fill="#22c55e" font-size="11px" opacity="0.95" text-anchor="middle" x="2448.0" y="1833.4">136</text><rect fill="#0f172a" height="13" opacity="0.85" rx="4" width="24" x="2396.7" y="1956.1" /><text fill="#f59e0b" font-size="11px" opacity="0.95" text-anchor="middle" x="2408.7" y="1966.1">69</text><rect fill="#0f172a" height="13" opacity="0.85" rx="4" width="31" x="1200.0" y="2252.5" /><text fill="#22c55e" font-size="11px" opacity="0.95" text-anchor="middle" x="1215.5" y="2262.5">115</text><rect fill="#0f172a" height="13" opacity="0.85" rx="4" width="24" x="2047.8" y="2587.6" /><text fill="#f59e0b" font-size="11px" opacity="0.95" text-anchor="middle" x="2059.8" y="2597.6">46</text><rect fill="#0f172a" height="13" opacity="0.85" rx="4" width="31" x="2594.1" y="2013.5" /><text fill="#22c55e" font-size="11px" opacity="0.95" text-anchor="middle" x="2609.6" y="2023.5">184</text><rect fill="#0f172a" height="13" opacity="0.85" rx="4" width="24" x="2583.1" y="2053.3" /><text fill="#f59e0b" font-size="11px" opacity="0.95" text-anchor="middle" x="2595.1" y="2063.3">70</text><rect fill="#0f172a" height="13" opacity="0.85" rx="4" width="24" x="2647.8" y="1732.4" /><text fill="#f59e0b" font-size="11px" opacity="0.95" text-anchor="middle" x="2659.8" y="1742.4">66</text><rect fill="#0f172a" height="13" opacity="0.85" rx="4" width="31" x="1101.5" y="2429.1" /><text fill="#22c55e" font-size="11px" opacity="0.95" text-anchor="middle" x="1117.0" y="2439.1">115</text><rect fill="#0f172a" height="13" opacity="0.85" rx="4" width="31" x="1030.8" y="2363.2" /><text fill="#22c55e" font-size="11px" opacity="0.95" text-anchor="middle" x="1046.3" y="2373.2">115</text><rect fill="#0f172a" height="13" opacity="0.85" rx="4" width="24" x="2120.0" y="2774.0" /><text fill="#f59e0b" font-size="11px" opacity="0.95" text-anchor="middle" x="2132.0" y="2784.0">46</text><rect fill="#0f172a" height="13" opacity="0.85" rx="4" width="24" x="2847.8" y="1737.0" /><text fill="#f59e0b" font-size="11px" opacity="0.95" text-anchor="middle" x="2859.8" y="1747.0">66</text></g><g id="legend"><rect fill="#1e293b" height="290" rx="8" stroke="#334155" stroke-width="1" width="280" x="20" y="20" /><text fill="#e2e8f0" font-size="12px" font-weight="bold" text-anchor="middle" x="160" y="38">Legend</text><circle cx="36" cy="59" fill="#f59e0b" r="9" /><text fill="#e2e8f0" font-size="11px" x="50" y="62">Coordinator</text><circle cx="36" cy="83" fill="#0ea5e9" r="7" /><text fill="#e2e8f0" font-size="11px" x="50" y="86">Router</text><circle cx="36" cy="107" fill="#475569" r="5" /><text fill="#e2e8f0" font-size="11px" x="50" y="110">End device</text><circle cx="36" cy="137" fill="#0ea5e9" filter="url(#glow-warn)" r="7" stroke="#f59e0b" stroke-width="2" /><text fill="#f59e0b" font-size="11px" x="50" y="140">Weak node  (LQI &lt; 80)</text><circle cx="36" cy="161" fill="#0ea5e9" filter="url(#glow-crit)" r="7" stroke="#ef4444" stroke-width="2" /><text fill="#ef4444" font-size="11px" x="50" y="164">Critical node  (LQI &lt; 30)</text><circle cx="36" cy="191" fill="#0ea5e9" r="7" /><rect fill="#0f172a" height="10" opacity="0.82" rx="3" width="14" x="29.0" y="186" /><text fill="#22c55e" font-size="8px" font-weight="bold" text-anchor="middle" x="36" y="194">42</text><text fill="#64748b" font-size="11px" x="50" y="194">path min LQI (worst hop)</text><line stroke="#22c55e" stroke-width="2" x1="28" x2="46" y1="214" y2="214" /><text fill="#e2e8f0" font-size="11px" x="52" y="218">LQI ≥ 80  (good)</text><line stroke="#f59e0b" stroke-width="2" x1="28" x2="46" y1="234" y2="234" /><text fill="#e2e8f0" font-size="11px" x="52" y="238">LQI 30–80  (weak)</text><line stroke="#ef4444" stroke-width="2" x1="28" x2="46" y1="254" y2="254" /><text fill="#e2e8f0" font-size="11px" x="52" y="258">LQI &lt; 30  (critical)</text></g></svg>